<?xml version="1.0" encoding="utf-8"?>
<!-- Generator: Adobe Illustrator 23.0.1, SVG Export Plug-In . SVG Version: 6.00 Build 0)  -->
<svg version="1.1" xmlns="http://www.w3.org/2000/svg" xmlns:xlink="http://www.w3.org/1999/xlink" x="0px" y="0px"
	 viewBox="0 0 1331.7 883" style="enable-background:new 0 0 1331.7 883;" xml:space="preserve">
<style type="text/css">
	.st0{opacity:0.6;fill:none;stroke:#FFFFFF;stroke-width:2;stroke-miterlimit:10;}
	.st1{fill:#F1F2F2;}
	.st2{opacity:0.71;fill:#87D6F8;}
	.st3{fill:#87D6F8;}
	.st4{opacity:0.6;}
	.st5{fill:#FFFFFF;}
	.st6{fill:#F6F5F5;}
</style>
<g id="Layer_11">
</g>
<g id="territory">
	<path class="st0" d="M1,394.3l276.7,437.1c0,0.1,0.1,0.1,0.2,0.1L529.1,882c0,0,0.1,0,0.1,0l547.1-60.6c0.1,0,0.2-0.1,0.2-0.1
		l254.1-430.5c0.1-0.1,0-0.3-0.1-0.4l-20.2-18.8c0,0,0,0-0.1-0.1l-10.9-18.6c0-0.1-0.1-0.2,0-0.3l7.3-17.1c0,0,0-0.1,0-0.2
		L1285,169.1c0-0.3-0.4-0.4-0.5-0.2l-31.3,38.4c-0.1,0.1-0.2,0.1-0.3,0.1l-32.9-5.9c-0.1,0-0.2-0.1-0.2-0.2l-24.1-84.6
		c-0.1-0.2-0.4-0.3-0.5-0.1l-101.2,117.2c-0.1,0.1-0.2,0.1-0.3,0.1l-42.5-18.3c-0.1-0.1-0.3,0-0.4,0.1l-9.8,13.9
		c-0.1,0.1-0.3,0.2-0.4,0.1l-65.1-39.2c-0.1-0.1-0.2-0.1-0.3,0l-8.2,6c-0.1,0.1-0.2,0.1-0.3,0l-5.2-3.4c-0.1,0-0.1-0.1-0.2,0
		l-13.2,2c-0.1,0-0.1,0-0.2,0l-8.8-5.3c-0.1,0-0.1-0.1-0.1-0.2l-2.5-11c0,0,0-0.1-0.1-0.1l-4.4-5c0-0.1-0.1-0.1-0.1-0.2v-3.3
		c0-0.1-0.1-0.2-0.1-0.3l-6.6-4.2c-0.1,0-0.1-0.1-0.1-0.2l-0.5-4.7c0,0,0-0.1,0-0.1l-4-6.3c-0.1-0.1-0.2-0.1-0.3-0.1l-11.9,0.4
		c-0.1,0-0.2,0-0.2-0.1l-8.6-8.3c0,0-0.1-0.1-0.1-0.2l-6-38.4c0,0,0-0.1-0.1-0.1l-31.9-44.5c0,0-0.1-0.1-0.1-0.1l-51.3-26.1
		c-0.1,0-0.1-0.1-0.2-0.2L808,25.4c0,0,0-0.1,0-0.1L794.3,2.9c-0.1-0.1-0.2-0.1-0.3-0.1L16.2,1c-0.2,0-0.3,0.1-0.3,0.3L1,394.1
		C1,394.2,1,394.2,1,394.3z"/>
</g>
<g id="village">
	<polygon class="st1" points="597.3,337.3 664.3,381 604.2,486.3 583.5,477.7 579.1,489 544.7,469.5 532.1,487.8 347.3,382.5 
		422.9,246.2 409,238.9 441.2,184 461.8,197.9 370.2,364.4 509.2,448.3 526.3,463.4 552.7,414.3 510.8,391.6 549.4,323.3 
		591.1,345.9 	"/>
</g>
<g id="water">
	<path class="st2" d="M1082.8,803c-0.4,0-0.8-0.1-1.1-0.3l-30.3-20.3c-0.9-0.6-1.2-1.8-0.6-2.7l31.7-53.6c0.5-0.9,1.7-1.3,2.7-0.8
		l34,17.1c0.5,0.3,0.9,0.7,1.1,1.3c0.2,0.6,0.1,1.1-0.2,1.6l-35.5,56.9c-0.3,0.5-0.8,0.8-1.3,0.9C1083.1,803,1082.9,803,1082.8,803z
		 M1082.9,726.3l0.4,0.3l-31.7,53.6c-0.3,0.5-0.1,1.1,0.3,1.4l30.3,20.3c0.2,0.2,0.5,0.2,0.8,0.2c0.3-0.1,0.5-0.2,0.7-0.5l35.5-56.9
		c0.2-0.3,0.2-0.5,0.1-0.8c-0.1-0.3-0.3-0.5-0.5-0.6l-34-17.1c-0.5-0.2-1.1-0.1-1.4,0.4L1082.9,726.3z"/>
	<path class="st2" d="M1051,824.7c-0.1,0-0.2,0-0.3-0.1l-49.3-29.9c-0.1-0.1-0.2-0.1-0.2-0.2l-14.5-35.9c-0.1-0.2,0-0.3,0.1-0.5
		l1.2-1.6c0.2-0.2,0.4-0.3,0.7-0.1l45.6,27.2c0.2,0.1,0.3,0.4,0.2,0.7c-0.1,0.2-0.5,0.3-0.7,0.2l-45.2-27l-0.8,1l14.3,35.5
		l49.2,29.8c0.2,0.1,0.3,0.5,0.2,0.7C1051.4,824.6,1051.2,824.7,1051,824.7z"/>
	<path class="st2" d="M602.1,434l2.7-1.3c0.4-0.2,0.8,0,0.9,0.4l0.7,4c0,0.2,0.1,0.3,0.3,0.4l11.5,6.8c0.3,0.2,0.4,0.6,0.2,0.8
		l-3.7,6c-0.1,0.1-0.1,0.2-0.3,0.2l-6.6,3.1c-0.3,0.2-0.8,0-0.8-0.4l-2-8.5c0-0.2-0.2-0.3-0.4-0.4l-4.9-2.1
		c-0.3-0.1-0.4-0.4-0.3-0.7l2.4-8C601.9,434.2,602,434,602.1,434z"/>
	<path class="st2" d="M334.1,1.5L173.8,287.1c-0.1,0.2,0,0.5,0.2,0.7c0.1,0,0.2,0.1,0.2,0.1c0.2,0,0.3-0.1,0.4-0.3L335.2,1.7
		L334.1,1.5z"/>
	<path class="st2" d="M374.5,805.9c-0.2,0-0.3-0.1-0.4-0.2c-0.1-0.2-0.1-0.5,0.2-0.7l51.1-32.1l-30.5-45.8c-0.2-0.2-0.1-0.5,0.1-0.7
		c0.2-0.2,0.5-0.1,0.7,0.1l30.8,46.2c0.1,0.1,0.1,0.2,0.1,0.4c0,0.1-0.1,0.2-0.2,0.3l-51.5,32.4
		C374.7,805.9,374.6,805.9,374.5,805.9z"/>
	<path class="st3" d="M1006.5,829c-1.1-3.3-6.4-18.4-7.4-23c-1-4.3-19.8-43.6-22.1-47.9c-2.6-5-16.8-16.6-24.1-21.7
		c-6.7-4.7-69-39.3-71.7-40.8l-44.5-23.8l-154.2-89l-131.8-75.9L414,428.3l-100.3-58.3l-98.2-57c-0.2-0.1-0.5-0.1-0.7,0.2
		c-0.1,0.2-0.1,0.5,0.2,0.7l98.2,57l100.3,58.3l93.2,53.6l-80.5,142.8c-0.1,0.2-0.1,0.5,0.2,0.7c0.1,0,0.2,0.1,0.2,0.1
		c0.2,0,0.3-0.1,0.4-0.3l80.5-142.8l42.7,24.6l131.8,75.9l154.2,89l44.5,23.8c0.4,0.2,20.8,11.6,39.8,22.3l-62.5,109.6
		c-0.1,0.2-0.1,0.5,0.2,0.7c0.1,0,0.2,0.1,0.2,0.1c0.2,0,0.3-0.1,0.4-0.3l62.5-109.6c14.5,8.2,28,15.9,30.9,18
		c7.2,5,21.2,16.5,23.8,21.3c2.9,5.4,21.1,43.7,22,47.7c1,4.6,6.2,19.5,7.4,23.1c0.1,0.2,0.3,0.3,0.5,0.3c0.1,0,0.1,0,0.2,0
		C1006.5,829.5,1006.6,829.2,1006.5,829z"/>
	<path class="st3" d="M572.5,155.2l-2.5-6.1c-0.1-0.1,0-0.3,0-0.4l1.3-2c0.2-0.4,0.3-0.8,0.2-1.2c-0.1-0.4-0.4-0.8-0.8-0.9
		l-28.6-13.8c-0.7-0.3-1.5-0.1-1.9,0.6l-33.3,54.9c-0.4,0.7-0.2,1.6,0.5,2l33.8,20.6c0.2,0.1,0.5,0.2,0.8,0.2c0.1,0,0.2,0,0.4,0
		c0.4-0.1,0.7-0.3,0.9-0.7l29.2-51.9C572.6,156.1,572.7,155.6,572.5,155.2z M571.5,156l-29.2,51.9c-0.1,0.1-0.2,0.2-0.3,0.2
		c-0.1,0-0.2,0-0.4-0.1l-33.8-20.6c-0.2-0.1-0.3-0.4-0.2-0.6l33.3-54.9h0c0.1-0.1,0.2-0.2,0.4-0.2c0.1,0,0.1,0,0.2,0l28.6,13.8
		c0.1,0.1,0.2,0.2,0.2,0.3c0,0.1,0,0.3-0.1,0.4l-1.3,2c-0.3,0.4-0.3,0.9-0.1,1.4l2.5,6.1C571.6,155.7,571.6,155.9,571.5,156z"/>
	<path class="st3" d="M436.4,177.1l35.5,20.4c0.4,0.3,0.9,0.4,1.4,0.4c0.3,0,0.5,0,0.8-0.1c0.7-0.2,1.4-0.7,1.7-1.4l19.6-34.5
		c0.8-1.4,0.3-3.1-1-3.9l-35.5-20.8l0,0c-0.7-0.4-1.5-0.5-2.2-0.3c-0.8,0.2-1.4,0.7-1.8,1.4l-19.6,35
		C434.5,174.6,435,176.3,436.4,177.1z M436.2,173.7l19.6-35c0.2-0.4,0.7-0.8,1.1-0.9c0.2,0,0.3-0.1,0.5-0.1c0.3,0,0.7,0.1,0.9,0.3
		l35.5,20.8c0.9,0.5,1.2,1.7,0.7,2.5l-19.6,34.5c-0.2,0.4-0.7,0.8-1.1,0.9c-0.5,0.1-1,0.1-1.4-0.2l-35.5-20.4
		C436,175.7,435.7,174.6,436.2,173.7z"/>
	<path class="st3" d="M343.7,379.3c0.1,0,0.2,0.1,0.2,0.1c0.2,0,0.3-0.1,0.4-0.3l76.1-132.7l2,1.4c0,0,0.1,0,0.1,0.1
		c5.9,1.8,78.7,42.2,79.5,42.6c0.1,0,0.2,0.1,0.2,0.1c0.2,0,0.3-0.1,0.4-0.3c0.1-0.2,0-0.5-0.2-0.7c-1.8-1-27.6-15.3-49.5-27.1
		l26.8-45.8c0.1-0.2,0.1-0.5-0.2-0.7c-0.2-0.1-0.5-0.1-0.7,0.2L452.4,262c0,0,0,0,0,0c-1.9-1-3.8-2-5.6-3l17.5-29.2
		c0.1-0.2,0.1-0.5-0.2-0.7c-0.2-0.1-0.5-0.1-0.7,0.2l-17.5,29.2c-11.4-6.1-20.6-10.9-22.7-11.6l-2-1.4l29.2-50.9
		c0.1-0.2,0.1-0.5-0.2-0.7c-0.2-0.1-0.5-0.1-0.7,0.2L343.6,378.6C343.4,378.9,343.5,379.2,343.7,379.3z"/>
</g>
<g id="veenhuizen_road" class="st4">
	<g>
		<path class="st5" d="M1300.7,354.3C1300.7,354.3,1300.7,354.3,1300.7,354.3l-24.3,0.5c-0.1,0-0.1,0-0.2-0.1l-20.2-17.7
			c-0.5-0.4-1.2-0.5-1.8-0.3l-13.2,5c-0.4,0.1-0.7,0.4-0.9,0.7l-42,71.2l-2.5-1.1l-138.9-86.1c-0.4-0.2-0.8-0.1-1,0.2
			c-0.2,0.4-0.1,0.8,0.2,1l139,86.1l2.5,1.1l-75.8,128.4c-0.2-0.2-0.4-0.2-0.7-0.2l-6.8,0.4c-0.1,0-0.1,0-0.2,0
			c-0.8-0.1-4.3-0.6-7.2-2.6c-3.7-2.6-47.8-27.3-49.6-28.3l-90.9-52c32.4-51.2,45.1-72.1,45.1-72.1l49.4-89.4
			c0.2-0.3,6-11.4,6.1-11.7c1.3-2.9,8.2-17.5,26-27.8c19.5-11.3,13.8-5,42.9-19.1l31.2-13.1c0,0,40.4-17,54-22.8
			c1.6-0.7-0.9-3.5-1.4-4.3l-14.3,5.4c-14.5,5-105.6,45.3-105.6,45.3s-20.2,7.1-31.2,24.8c-11,17.7-37.9,67.7-37.9,67.7
			s-24.1,46.8-55.3,93.2c-4.2,6.2-8.8,13.4-13.7,21.2l-2.2-1.2l-87-49.6l-93.3-54.6L729,322.9c-1.8-0.9-6.4-3.7-7.7-5.7
			c-1.7-2.5-5.5-7.3-8.1-8.6c-2.2-1.1-17.7-10-17.8-10.1l-57.1-31.7l50.6-89.3l18.3-33.2l6.2-10.9l70.2,40.8c0,0,0,0,0.1,0l13.9,6.9
			c0,0,0,0,0.1,0l80,46c0.2,0.1,0.5,0.2,0.7,0.2c0.5,0,1-0.3,1.3-0.8c0.4-0.7,0.2-1.6-0.6-2l-80.1-46.1c0,0,0,0-0.1,0l-13.9-6.9
			c0,0,0,0-0.1,0l-70.2-40.8L788.4,2.4l-3.5,0.1l-72.6,126.8l-87.6-50.9l-47.5-27.6l-30.9-17.6c-0.5-0.3-0.6-0.9-0.4-1.4l17-29.8
			l-3.4,0l-16.2,28.3c-0.3,0.5-0.9,0.7-1.4,0.4L491.3,2.2l-6.1,0l55.2,31.2c0.5,0.3,0.6,0.9,0.4,1.4l-61.1,108
			c-0.3,0.5-0.9,0.7-1.4,0.4c-9.1-5.3-18-10.6-18.2-10.7l-0.1-0.1c-0.3-0.1-2.9-1.3-5.3-0.3c-1.3,0.5-2.3,1.5-2.9,3
			c-1.3,3.2-16.5,28.9-22.3,38.4c0,0-0.1,0.2-0.2,0.3c-0.3,0.5-0.9,0.7-1.4,0.4l-52.3-30.1c-0.5-0.3-0.6-0.9-0.4-1.4
			c25-44.5,57.1-101.9,59-105.4c3.1-5.8,10.1-12.5,12.6-12.7c3.9-0.2,7.9-7.8,9-10.1c0,0,0,0,0,0L463,2.1l-3.3-0.3l-6.4,11.4
			c-1.9,4-5.1,8.5-6.5,8.5c-4.4,0.2-12.2,8.8-15.1,14.3c-1.8,3.4-34.4,61.6-59.4,106.1l-0.5-0.3c-8.8-5.2-86.2-50.4-88.5-51.4
			c-0.3-0.1-0.4-0.2-0.5-0.3l49.7-88.3l-3.9,0.3l-48.4,86.5c-0.2,0.2-0.3,0.5-0.4,0.8C254.3,75,139.4,9.7,135,7.2
			c-4.5-2.6-7.9-0.8-9,0.6l-0.1,0.1L20.1,194.3c-0.1,0-0.1,0-0.1,0c-2.9-1.4-6.8-1.1-11.1-1.3l-0.4,4.9l9.8,1.4
			c0.2,0,0.3,0.1,0.5,0.1l10.4,4.1c0.1,0.1,0.2,0.1,0.4,0.2l111.9,64.7l11.3,6.2c1.4,0.7,3.5,2.5,4.1,3.3l0.8,1.1
			c1.9,2.6,2.3,6.1,0.9,9.1c-3.4,7.3-9.9,21-14.8,27.6c-6.5,8.7-9.8,13.8-27.8,25.9c-0.4,0.3-5.8,3.5-5.9,3.6L6.1,398
			c-1.5,0.7-1.9,2.6-0.9,3.9l0.5,0.7L5.1,403c1.3,2.1,75.7,119.5,141.3,223l0.8,1.2c50.1,79,94.9,149.7,97.8,154.1
			c2.9,4.4,7.1,5.7,11.2,5.7c5.9,0,11.4-2.8,11.5-2.8l111.5-70.6l6.2-1.3l-0.3-1.5l-6.5,1.4L266.9,783c-0.1,0.1-14.4,7.3-20.7-2.4
			c-2.9-4.4-47.7-75-97.8-154.1l92.2-58.9c0.1-0.1,0.2-0.2,0.3-0.3l73.8-129.1l61.1,36.9l48.2,28.3c0,0,0,0,0,0c0,0,0,0,0,0l0,0
			l43.3,22.7l-12.5,22.1c-0.1,0.2-2.4,4.8,0.7,10.5c2.7,5-1.9,11.2-2,11.3l-32.7,51.2c0,0.1-1.2,2-0.6,3.9c0.3,1,1,1.9,2.1,2.4
			c3.3,1.7,12.1,7.1,12.2,7.1c0.1,0.1,0.3,0.1,0.4,0.1c0.2,0,0.5-0.1,0.6-0.3l32.1-48.2l24.4-47.3l239.7,136.4L715,706l-8.8,15.5
			l-43.6-26.3l0,0c0,0-0.1-0.1-0.1-0.1L468,585.8l-0.4,0.7l-0.4,0.7l194,109.1l-28.8,48.9c-0.1,0.1-0.2,0.1-0.2,0.2
			c-0.1,0.1-0.1,0.2-0.1,0.3l-18.4,31.3L577,806.7c-0.3,0.2-0.4,0.5-0.4,0.9s0.2,0.6,0.5,0.8l62.5,32.1c0.1,0.1,0.3,0.1,0.5,0.1
			c0.3,0,0.7-0.2,0.9-0.5l38.4-67.9l77.8,42.9l-24.6,43.5c-0.2,0.4-0.1,0.8,0.3,1c0.1,0.1,0.2,0.1,0.4,0.1c0.3,0,0.5-0.1,0.7-0.4
			l24.6-43.5l62,34.2c0.1,0.1,0.2,0.1,0.4,0.1c0.3,0,0.5-0.1,0.7-0.4c0.2-0.4,0.1-0.8-0.3-1l-62-34.2L836.3,678
			c1.4,1.8,4.5,3,9.2,3.6c1.9,0.3,3.7,0.8,5.3,1.8l20.9,11.7l-1.9,3.8l0,0.1c0,0.2-0.9,4.5,4.7,7.5c5.2,2.8,23.9,13.3,24.1,13.5
			c1,0.5,2.5,1,4,1c1.5,0,3-0.5,3.8-2.1c0.9-1.7,1.6-2.7,2.1-3.3l4.9,2.7l-69.2,128.9l1.9-0.2l68.7-128l9.3,5.2l0.6,0.4l-1.3,4.3
			c-0.5,1.7-1.7,3.1-3.3,4l-1,0.5c-1.7,0.9-3.1,2.3-4.1,4L853,845.9l4.1-0.4l60.4-106.5c0.7-1.2,1.7-2.2,2.9-2.9l1-0.5
			c2.3-1.2,3.9-3.3,4.7-5.7l1-3.4l38,28.4c0,0,0.1,0.1,0.1,0.1c19.8,19.3,15.2,35.9,15.2,36.1c-7.1,21.7-8.5,30.9-40.6,45.1l0.9,0.6
			c32.7-14.4,34-23.3,41.2-45.3c0.2-0.7,4.9-17.6-15.6-37.7c0,0-0.1-0.1-0.1-0.1l-40-30.3l-1.1-0.8c0,0-0.1-0.1-0.1-0.1l-73-40.9
			c-1.8-1-3.9-1.7-6-2c-5.7-0.8-7.5-2.2-8.1-3c-0.3-0.4-0.3-0.7-0.3-0.8l3.5-5.3c0,0,0,0,0,0c2.6,1.7,109,63.6,109.6,63.6
			c1.1,0.2,18.9,13.9,21.6,16.6c3.3,3.3,3.9,4.2,4.9,5.9c1.2,1.9,4.4,5.7,15.3,29.7c10.1,22.3,15.9,37.1,17.4,42.6l5.4-0.7
			c-4.5-12.8-20.4-57-32.5-74.1l0.5-0.6c0.2-0.3,0.5-0.5,0.9-0.6c1.2-0.3,3.6-0.6,6.6,1.3c1.1,0.7,5.6,3.4,11.8,7.1
			c-0.2,0.4,0,0.8,0.3,1c0.1,0.1,0.2,0.1,0.4,0.1c0.2,0,0.4-0.1,0.6-0.3c10.3,6.1,24.9,14.7,37.1,21.9c-1.6,2.5-6.9,10.9-9.7,15.5
			c-1.5,2.5-2.1,4.7-1.7,6.4c0.2,0.9,0.9,1.8,1.8,2.3l19.3,11c0.6,0.3,1.2,0.5,1.9,0.5c0.3,0,0.7,0,1-0.1c1-0.3,1.8-0.9,2.3-1.8
			c2.9-5.2,8-14.2,9.2-16.4c1.7-2.9,0.4-5-0.5-5.7l-0.1-0.1c-0.5-0.3-38.8-22.8-59.7-35.2l117.9-215.7l35.7-60.5
			c6.7,3.8,66.6,37.9,74.6,41.9c2.2,1.1,4.1,1.5,5.8,1.5c5,0,7.2-3.9,7.2-4l29.5-52.9c0.2-0.4,0.1-0.8-0.3-1s-0.8-0.1-1,0.3
			l-29.5,52.9c-0.1,0.2-3.2,5.7-11,1.8c-7.9-4-67.7-38-74.5-41.9l39.7-67.3l55.4,23.9c0.1,0,0.2,0.1,0.3,0.1c0.3,0,0.6-0.2,0.7-0.5
			c0.2-0.4,0-0.8-0.4-1l-55.3-23.8l41.9-71c0,0,0.1-0.1,0.1-0.1l13.2-5c0.1,0,0.2,0,0.3,0l20.2,17.7c0.3,0.3,0.8,0.4,1.2,0.4
			l24.3-0.5c0.4,0,0.7-0.4,0.7-0.8C1301.5,354.7,1301.1,354.3,1300.7,354.3z M907.6,715.1c-0.6,0.6-1.3,1.7-2.1,3.3
			c-1.5,3.1-6.4,0.7-6.4,0.7c-0.2-0.1-18.8-10.7-24.1-13.5c-4.6-2.5-4.3-5.8-4.2-6.3l1.9-3.7L907.6,715.1z M1063.3,797.2
			c0.2,0.2,1.1,1.1,0,3c-1.3,2.1-6.3,11.2-9.3,16.4c-0.2,0.4-0.6,0.7-1.1,0.9c-0.5,0.1-1,0.1-1.4-0.2l-19.3-11
			c-0.4-0.2-0.7-0.6-0.8-1c-0.2-0.8-0.1-2.3,1.4-4.8c2.8-4.6,8.2-13.1,9.7-15.5C1053.4,791.4,1062.1,796.5,1063.3,797.2z
			 M957.8,459.2l2.1,1.2c-5,8-10.2,16.5-15.5,25.2c-0.6-0.4-1.5-1-2.5-1.7l15.5-24.9L957.8,459.2z M955.5,457.9l-15.4,24.8
			c-1.2-0.7-2.5-1.4-3.5-1.9c-3-1.3-4.5,1.7-5.5,3.7c-0.3,0.7-0.7,1.4-1,1.8c-1.4,1.7-7.6,5.8-10.4,6c-2.4,0.1-2.8-0.7-5-4.9
			l-0.2-0.5c-2-3.8-0.2-6.3-0.1-6.4l5.2-9.3c0.3-0.4,2.9-3.5,6.2-2.1c1.7,0.7,3.3,0.8,4.6,0.3c1.5-0.6,2.1-1.8,2.2-2.2l9.2-17.3
			L955.5,457.9z M693.9,301.1c0.6,0.4,15.7,9,18,10.1c2.1,1,5.6,5.2,6.6,7c2.1,3.6,5.6,5.3,6.5,5.7c0,0,0,0,0.1,0l52.4,31l20.3,11.9
			c0.5,0.3,0.6,0.9,0.4,1.4L680.2,572.9L629,543.5l-77.5-44L517,479.6l14.3-25c0.3-0.5,0.9-0.6,1.4-0.3l11.1,7
			c0.2,0.1,0.3,0.1,0.6,0.2l6.6-0.1c0.9,0,1.7,0.2,2.4,0.6c5.5,3.2,14.3,8.5,15.8,9.7c1,0.8,2,1.1,3,1.1c1.1,0,2.1-0.4,2.7-0.7
			c0.1-0.1,0.3-0.2,0.3-0.3c0-0.1,4.3-7.4,7.5-12c3.4-4.9,3.6-9.7,3.6-9.9l2-24.6c0-0.4,0.3-0.7,0.7-0.8l10.6-3.4
			c0.3-0.1,0.6-0.1,0.8,0.1l12.4,7.6c0,0,0.5,0.4,0.5,1c0,0.5-0.2,1-0.8,1.6c-0.3,0.3-0.3,0.8,0,1.1c0.1,0.1,0.3,0.2,0.5,0.2
			c0.2,0,0.4-0.1,0.5-0.2c0.9-0.9,1.3-1.8,1.2-2.8c-0.1-1.3-1-2-1.2-2.1l-11.8-7.2c-0.5-0.3-0.6-0.9-0.3-1.3l15.8-25.9
			c0.3-0.5,0.9-0.6,1.3-0.3c3.3,1.9,10.4,6,12.5,7.2c2.7,1.6,4.5,0.6,5.1-0.2c0-0.1,0.1-0.1,0.1-0.2l6.4-13.2
			c0.1-0.3,0.4-0.5,0.6-0.5l5.7-1.4c0.3-0.1,0.6,0,0.8,0.2l3.5,2.5c0.1,0.1,0.3,0.1,0.4,0.1c0.2,0,0.5-0.1,0.6-0.3
			c0.2-0.3,0.2-0.8-0.2-1l-3-2.2c-0.4-0.3-0.5-0.8-0.3-1.2l0.8-1.5c0.2-0.4,0-0.8-0.3-1c-0.4-0.2-0.8,0-1,0.3l-1.1,2.1
			c-0.1,0.3-0.4,0.4-0.6,0.5l-5.8,1.4c-0.2,0.1-0.5,0-0.7-0.1L590,353.7c-0.5-0.3-0.6-0.9-0.4-1.3l17.6-30.8l29.5-52.1L693.9,301.1z
			 M557.2,409.1c0.3-0.5,0.8-0.6,1.3-0.4l27.3,15.1c0.3,0.2,0.5,0.5,0.5,0.9l-2,24.7c0,0-0.2,4.5-3.3,8.9c-2.8,4-6.2,9.8-7.3,11.6
			c-0.1,0.2-0.3,0.3-0.5,0.4c-0.6,0.2-1.8,0.4-2.8-0.4c-2.2-1.8-16.8-10.4-17.4-10.7c-0.2-0.1-0.3-0.1-0.5-0.1l-7.6,0.2
			c-0.2,0-0.4,0-0.5-0.1l-10.8-6.7c-0.4-0.3-0.6-0.9-0.3-1.3L557.2,409.1z M540.4,430.6l-2-1.2c-0.5-0.3-0.6-0.9-0.3-1.3
			c1.8-3,3.8-6.4,4.3-7.6c0.6-1.2,1.8-1,2.3-0.9l1.6,1c0.4,0.3,0.6,0.9,0.3,1.3l-4.8,8.4C541.4,430.7,540.8,430.9,540.4,430.6z
			 M548.1,220c0.3-0.5,0.9-0.6,1.4-0.4l77.2,44.2l7.5,4.2l-29.5,52.1L587,350.9c-0.3,0.5-0.8,0.6-1.3,0.4l-36.2-20
			c-0.5-0.3-1.1-0.1-1.4,0.4c-0.3,0.5-0.1,1.1,0.4,1.4l3.9,2.2c0.5,0.3,0.6,0.8,0.4,1.3c-3.3,6.2-15.6,28.7-23.8,41.5
			c-0.3,0.4-0.8,0.6-1.3,0.3l-6.2-3.5c-0.5-0.3-1.1-0.1-1.4,0.4c-0.3,0.5-0.1,1.1,0.4,1.4l38.3,21.8c0.5,0.3,0.6,0.9,0.4,1.3
			l-7.1,12.5c-0.3,0.5-0.9,0.6-1.3,0.4l-84.6-47.9L548.1,220z M464.9,362.8c-0.3,0.5-0.9,0.7-1.4,0.4l-78.8-45.4
			c-0.5-0.3-0.6-0.9-0.4-1.4l69.4-121.3c0.3-0.5,0.9-0.6,1.4-0.4l13.6,8.1l0.2,0.1c0.9,0.4,2.3,0.8,3.8,0.8c2.2,0,4.6-0.8,6-3.5
			c1-1.8,4.4-8.2,8.2-15.2c0.3-0.5,0.9-0.7,1.4-0.4l33.9,19.3l23.9,13.7c0.5,0.3,0.6,0.9,0.4,1.4L464.9,362.8z M623.5,376.5l-7,13.6
			c0,0,0,0,0,0.1l-5.2,8.6c-0.3,0.5-0.9,0.6-1.3,0.3l-34.4-20c-0.5-0.3-0.6-0.9-0.4-1.3l12.6-22c0.3-0.5,0.9-0.6,1.3-0.4l34.1,19.8
			C623.6,375.5,623.8,376.1,623.5,376.5z M625.2,377.6c0.3-0.5,0.9-0.7,1.4-0.4l13.3,7.8c0.4,0.3,0.6,0.8,0.4,1.3l-5.7,11.7
			c-0.1,0.3-0.4,0.5-0.7,0.5c-0.4,0-1-0.1-1.9-0.6c-2.1-1.2-9.3-5.3-12.5-7.2c-0.5-0.3-0.6-0.8-0.4-1.3L625.2,377.6z M581.5,352.4
			l-11.9,21.1c-0.3,0.5-0.9,0.6-1.3,0.4l-10.4-6.1c-0.5-0.3-0.6-0.9-0.3-1.3l12-20.6c0.3-0.5,0.8-0.6,1.3-0.4l10.3,5.7
			C581.6,351.3,581.8,351.9,581.5,352.4z M583.3,353.3c0.3-0.5,0.8-0.6,1.3-0.4l0.1,0.1c0.5,0.3,0.6,0.9,0.4,1.3l-15.3,26.8
			c-0.3,0.5-0.8,0.6-1.3,0.4c-0.5-0.3-0.6-0.9-0.4-1.3L583.3,353.3z M567.7,376.9l-1.3,2.3c-0.3,0.5-0.8,0.6-1.3,0.4l-10.6-5.8
			c-0.5-0.3-0.6-0.9-0.4-1.3l1.5-2.6c0.3-0.5,0.9-0.6,1.3-0.3l10.4,6.1C567.8,375.8,567.9,376.4,567.7,376.9z M567.8,344.8l-5.6,9.7
			c-0.3,0.5-0.8,0.6-1.3,0.4l-11.4-6.1c-0.5-0.3-0.7-0.9-0.4-1.3c2.4-4.4,4.4-8,5.4-10c0.3-0.5,0.8-0.6,1.3-0.4l11.6,6.4
			C567.9,343.7,568.1,344.3,567.8,344.8z M559.8,356.6c0.5,0.3,0.7,0.9,0.4,1.3l-7.9,13.5c-0.3,0.5-0.9,0.6-1.3,0.3l-10.9-6.4
			c-0.5-0.3-0.6-0.9-0.3-1.3c2.6-4.5,5.1-9,7.4-13.1c0.3-0.5,0.8-0.6,1.3-0.4L559.8,356.6z M550.8,374L550.8,374l16.6,9.2
			c0.5,0.3,0.6,0.9,0.4,1.3l-6.7,11.7c-0.3,0.5-0.9,0.6-1.3,0.4l-28.7-16.3c-0.5-0.3-0.6-0.9-0.3-1.4c2.2-3.3,4.6-7.3,7-11.5
			c0.3-0.5,0.9-0.6,1.3-0.3L550.8,374z M573.2,381.2c0.3-0.5,0.9-0.6,1.3-0.4l34.3,19.9c0.5,0.3,0.6,0.9,0.3,1.3l-10,16.5
			c-0.1,0.2-0.3,0.4-0.5,0.4l-10.7,3.4c-0.3,0.1-0.5,0.1-0.8-0.1l-27.6-15.3c-0.5-0.3-0.6-0.9-0.4-1.3L573.2,381.2z M482.3,144.3
			l61.1-108.1c0.3-0.5,0.9-0.7,1.4-0.4l30.9,17.5l15.7,9.2l-20.9,34.5c-0.3,0.5-0.1,1.1,0.3,1.4c0.2,0.1,0.3,0.1,0.5,0.1
			c0.3,0,0.7-0.2,0.9-0.5l20.9-34.6l30,17.5l87.6,50.9l-6.3,11l-18.3,33.2l-50.6,89.3l-7.5-4.2l-82.6-47.3l31.9-58l6.9-4.6
			c0.5-0.3,0.6-0.9,0.3-1.4c-0.3-0.5-0.9-0.6-1.4-0.3l-7.1,4.8c-0.1,0.1-0.2,0.2-0.3,0.3l-32,58.2l-20.2-11.6L493,183.9l29.5-50.8
			l13.4-10c0.4-0.3,0.5-1,0.2-1.4c-0.3-0.4-1-0.5-1.4-0.2l-13.5,10.1c-0.1,0.1-0.2,0.2-0.3,0.3l-29.6,51l-1.6-0.9
			c-0.5-0.3-0.6-0.9-0.4-1.3c4.3-8,8.1-15.1,8.9-16.6c0-0.1,0.5-0.8,0.5-0.8c0.8-1.4,2.2-2.8,1.8-5.2c-0.2-1.1-0.9-2.7-3.1-3.9
			c-1.9-1-8-4.5-14.7-8.5C482.2,145.4,482,144.8,482.3,144.3z M432.2,175.1c0.9-1.4,20.9-34.9,22.5-38.9c0.3-0.7,0.7-1.1,1.2-1.3
			c1-0.4,2.3,0,2.9,0.2c2.1,1.2,32.4,19.1,37.3,21.7c1,0.5,1.1,0.8,1.2,1.4c0.2,1.1-0.5,2.7-0.8,3.2l-0.1,0.2
			c0,0-17.7,32.8-20.1,37.2c-1.5,2.9-5,1.8-5.8,1.4c-0.1,0-0.1,0-0.1-0.1l-19-11.4c0,0,0,0,0,0c-1.1-0.7-10.3-6.7-14.7-9
			c-0.6-0.3-4.3-2.3-4.5-2.9C431.5,176.1,432.1,175.1,432.2,175.1z M372.9,147.1c0.3-0.5,0.9-0.7,1.4-0.4l51.8,29.8
			c0.1,0,0.4,0.3,0.9,0.5c0.9,0.5,2.3,1.5,3.2,2.2c1.7,1.3,1.9,1.5,5.2,3.2c3.4,1.8,10.8,6.7,13.3,8.3c0,0,0,0,0,0l-31.3,51.6
			c-0.3,0.5-0.1,1.1,0.3,1.4c0.2,0.1,0.3,0.1,0.5,0.1c0.3,0,0.7-0.2,0.9-0.5l31.3-51.6c0,0,0,0,0,0l1.4,0.9c0.5,0.3,0.6,0.9,0.4,1.4
			l-69.9,122.2c-0.1,0.1-0.2,0.2-0.3,0.3l-23.4,40.7c-0.3,0.5-0.1,1.1,0.4,1.4c0.2,0.1,0.3,0.1,0.5,0.1c0.3,0,0.7-0.2,0.9-0.5
			l22-38.4c0.3-0.5,0.9-0.6,1.4-0.4l80.6,46.5c0.1,0.1,0.3,0.1,0.5,0.1c0,0,0.1,0.1,0.1,0.1l85,48.1c0.5,0.3,0.6,0.9,0.4,1.3
			l-1.7,2.9c-0.3,0.5-0.9,0.6-1.4,0.3l-1.5-0.9c-0.1-0.1-0.3-0.1-0.4-0.2c-1.2-0.4-3.6-0.4-4.7,1.9c-0.4,0.8-1.4,2.6-2.7,4.7
			c-0.3,0.5-0.9,0.6-1.4,0.3c-1.2-0.8-3-2-4.5-2.9c-3-1.8-4.5,0.4-6.1,2.6c-0.2,0.3-0.4,0.6-0.6,0.9c-2.3,3.1-0.9,5.3-0.7,5.6
			c0,0,0,0,0.1,0.1c0.2,0.3,1.6,1.7,4.6,3.3c1.1,0.6,2.1,0.8,2.8,0.8c1.4,0,2.3-0.7,2.6-1.3c0.1-0.1,0.6-1.1,1.4-2.4
			c0.3-0.5,0.9-0.6,1.3-0.3l2.1,1.3c0.4,0.3,0.6,0.9,0.3,1.3l-25.3,44.4l-93.7-54.2l-72.4-41.3l-7.9-4.6
			c8.1-15,53.2-98.2,59.8-107.5c7-10,6.5-15,6.3-16c-0.1-0.5-0.4-3.1-2.1-10.9c-2.1-9.4-12.2-15.1-12.6-15.3
			c-0.3-0.2-30.4-17.4-40.8-22.9c-3.2-1.7-5-3.6-5.6-5.8c-0.7-2.7,0.8-4.9,0.8-4.9c0,0,0.1-0.1,0.1-0.1
			C347.5,192.3,358.8,172.3,372.9,147.1z M535.8,427.8c-1.6,2.7-3,4.9-3,5c-0.2,0.3-1.1,0.7-2.8-0.2c-2.3-1.2-3.5-2.4-3.9-2.7
			c-0.1-0.1-0.2-0.2-0.2-0.3c-0.2-0.4-0.3-1.5,0.8-3.1c0.2-0.3,0.4-0.6,0.6-0.9c1.7-2.4,2.2-2.8,3.5-2c1.6,0.9,3.5,2.2,4.6,3
			C536,426.8,536.1,427.3,535.8,427.8z M281.2,92.7c0.2,0.2,0.5,0.3,0.8,0.5c2,1,58.6,34,88.3,51.3l0.5,0.3
			c-14.7,26.2-26.4,47-27.1,48.3c-0.3,0.5-2.1,3.5-1.2,7.2c0.8,3.1,3.2,5.7,7.1,7.8c10.3,5.4,40.4,22.6,40.7,22.8
			c0.1,0.1,9.3,5.3,11.1,13.4c1.9,8.5,2.1,10.5,2.1,10.6c0,0.1,0,0.2,0,0.2c0,0,0.8,4.2-5.8,13.7c-6.7,9.6-51.5,92.2-59.9,107.7
			l-56.4-32.8l-54.6-31.4c0,0-27-15.2-30.7-17.2c-1.5-0.8-7-6.1-7-6.1s-8.2-7.7-14.7-10.6L281.2,92.7z M157.9,271.2
			c-3.5-3.3-8.2-5-9.3-5.3c-0.1-0.1-0.3-0.1-0.4-0.2l-7.4-3.9c0,0-33.1-19.6-76.6-43.9c-28.6-16-38.7-21.2-42.3-22.9l105.6-186
			c0.1-0.1,0.1-0.2,0.2-0.3c0.7-0.6,2.9-1.9,6.3,0c4.4,2.5,118.7,67.6,144.5,82.3c0.5,0.3,0.6,0.9,0.4,1.4L172.5,277.8
			c-0.1,0-0.1,0-0.2-0.1c-6.6-1.7-6.2,0.6-8.6,1.1c-1.2,0.2-2.8-3.4-3.5-4.6C160.1,274.1,158.1,271.4,157.9,271.2z M466.4,585.7
			l-31.6,47.5c-2.1-1.3-8.8-5.3-11.7-6.8c-0.7-0.4-1.2-0.9-1.4-1.5c-0.4-1.3,0.5-2.7,0.5-2.7c0,0,0,0,0,0l32.6-51.1
			c0.2-0.3,5.2-7.1,2.1-12.9c-2.7-5-0.7-9-0.7-9.1l12.5-22.1l22,11.6L466.4,585.7z M639.9,839l-61.4-31.6l36.3-29.4l0.2-0.2
			l18.3-31.1l44.8,24.7L639.9,839z M678.8,770.2l-44.7-24.7l28.6-48.5l42.9,25.9L678.8,770.2z M835.6,674.9
			c-0.1,0.1-0.1,0.2-0.1,0.2c0,0.1-0.2,0.6,0,1.3l-77.6,137.4l-77.8-42.9l36.2-64.1l0.4-0.8l75.6,43.1c0.1,0.1,0.2,0.1,0.4,0.1
			c0.3,0,0.5-0.1,0.7-0.4c0.2-0.4,0.1-0.8-0.3-1l-75.6-43.1l15.6-28.4l75.6,42.6c0.1,0.1,0.2,0.1,0.4,0.1c0.3,0,0.5-0.1,0.7-0.4
			c0.2-0.4,0.1-0.8-0.3-1L733.8,675l17.8-32.3l-1.3-0.7l-17.8,32.3L492.7,537.8l20.8-40.3c0.2-0.4,0-0.8-0.3-1c-0.4-0.2-0.8,0-1,0.3
			l-20.7,40.2l-22-11.5l23.2-41c0.2-0.4,0.1-0.8-0.3-1c-0.4-0.2-0.8-0.1-1,0.3l-23.2,41l-42.6-22.4l27.1-49.9c0.2-0.4,0.1-0.8-0.3-1
			c-0.4-0.2-0.8-0.1-1,0.3l-27.1,49.9l-47.5-27.9l-1.8-1.1l26.8-47.5c0.2-0.4,0.1-0.8-0.3-1c-0.4-0.2-0.8-0.1-1,0.3L373.6,472
			l-58.5-35.3c-0.2-0.1-0.5-0.2-0.8-0.1c-0.3,0.1-0.5,0.2-0.6,0.5l-74,129.4l-92.1,58.8c-62-97.8-131.8-208-140.4-221.6
			c0.6,0.1,1.2,0.1,1.8-0.2l70.7-35.9c0.3-0.2,35.3-18.9,36.6-20.1l3.7-2.1c0.3-0.2,9.7-6.6,15.1-11l4.1-3.6
			c1.5-1.3,2.9-2.8,4.1-4.3c1.8-2.3,4.9-6.3,9.3-12.8c0.4-0.5,1.6-2.6,3-4.9c0.2-0.3,2.3-4.1,2.4-4.4l8.5-19.8
			c0.4-0.9,1.2-1.5,2.2-1.6c6.8-0.4,19.5,12.9,22.6,15.9c0.3,0.2,0.6,0.4,0.8,0.6l4.4,2.5l44,24.6l384.5,221l214.2,121.9
			L835.6,674.9z M840.3,663.7l-50.9-28.7l-105.3-59.8l-1.3-0.7l117.8-204.6c0.3-0.5,0.9-0.6,1.4-0.4l68.7,40.2l69.3,39.5l-9.3,17.4
			l0,0.1c-0.2,0.4-1.1,2.2-4.2,0.9c-3.9-1.6-7.4,1.1-8.6,2.8l-5.2,9.3c-0.4,0.5-2.4,3.8,0,8.4l0.2,0.5c2,3.9,3.1,5.9,6.4,5.9
			c0.2,0,0.3,0,0.5,0c3.5-0.2,10.3-4.8,11.9-6.7c0.5-0.6,0.8-1.3,1.2-2.1c1.2-2.4,1.8-3.2,2.9-2.7c2.4,1,6.2,3.6,7.5,4.5
			c-27.4,45.2-55.3,94.3-55.3,94.3L840.3,663.7z M1003.4,759.5c-6.2-3.7-10.6-6.3-11.7-7c-3.7-2.3-6.7-2-8.3-1.5
			c-0.7,0.2-1.4,0.6-1.9,1.2l-0.2,0.3c-0.7-0.9-1.4-1.8-2.1-2.5c-14.2-14.2-17.8-15.8-17.8-15.8l-63.6-37.4l-51.9-30l-0.9-0.5
			l58.1-100.8l10.4-18c0,0,17.4-31.2,51-84.3c0,0,0-0.1,0.1-0.1l91,52.1c0.5,0.3,45.8,25.7,49.4,28.2c4,2.8,8.7,3.2,8.9,3.2l0.1,0
			l6-0.3L1003.4,759.5z"/>
		<path class="st5" d="M891.3,800.2c-0.4,0.2-0.6,0.6-0.4,1l16.8,39.5l1.4-0.6l-16.8-39.5C892.1,800.2,891.6,800.1,891.3,800.2z"/>
	</g>
</g>
<g id="green">
	<path class="st6" d="M761.2,162.6l-18.9,35.1c-0.2,0.4-0.1,1,0.4,1.2l21,10.5c0.4,0.2,0.9,0.1,1.2-0.4l19-34.1
		c0.2-0.4,0.1-1-0.3-1.2l-21-11.5C762,162,761.5,162.2,761.2,162.6z"/>
</g>
<g id="museum">
	<path d="M469,192c-0.1,0.1-0.2,0.2-0.3,0.1L439,175.3c-0.4-0.2-0.7-0.6-0.8-1.1c-0.1-0.5-0.1-0.9,0.2-1.3l18.8-31.7
		c0.2-0.4,0.6-0.7,1.1-0.8c0.4-0.1,0.9,0,1.3,0.2l30.2,17.9c0.1,0.1,0.2,0.2,0.1,0.3l-1.5,2.6c-0.1,0.1-0.2,0.2-0.3,0.1l-28.5-16.9
		c-0.1-0.1-0.3,0-0.3,0.1l-16.7,28.3c-0.1,0.1,0,0.3,0.1,0.3l27.8,15.8c0.1,0.1,0.2,0.2,0.1,0.3L469,192z"/>
</g>
<g id="brewery">
	<path d="M418.3,390.7l-6.8,8.7c-0.2,0.2-0.1,0.6,0.2,0.7l10.8,5.9c0.2,0.1,0.4,0.1,0.6-0.1l7.7-7.7c0.2-0.2,0.2-0.6-0.1-0.8
		l-11.7-6.8C418.7,390.4,418.4,390.5,418.3,390.7z"/>
</g>
<g id="dae">
	<path d="M367.5,363.4l-7.3,11.7c-0.1,0.2-0.1,0.5,0.2,0.7l10.7,6.3c0.2,0.1,0.5,0.1,0.7-0.2l6.3-12.1c0.1-0.2,0-0.5-0.2-0.6l-9.7-6
		C367.9,363.1,367.6,363.2,367.5,363.4z"/>
</g>
<g id="hotel">
	<path d="M513.3,99.1l-4.2,9c-0.1,0.2,0,0.5,0.2,0.6l9.7,4.8c0.2,0.1,0.5,0,0.6-0.2l3.7-8.4c0.1-0.2,0-0.4-0.2-0.5l-9.2-5.4
		C513.7,98.8,513.4,98.8,513.3,99.1z"/>
</g>
<g id="prison">
	<g>
		<path d="M514.3,183l2.6,1.8c0.1,0.1,0.3,0,0.4-0.1l17.7-29c0.1-0.1,0.2-0.2,0.3-0.1l21.3,12.7c0.1,0.1,0.2,0.2,0.1,0.3L540,196.9
			c-0.1,0.1,0,0.3,0.1,0.3l1.9,1.3c0.1,0.1,0.3,0,0.4-0.1l19.7-32.6c0.1-0.1,0-0.3-0.1-0.3L535,149.3c-0.1-0.1-0.3,0-0.3,0.1
			l-20.5,33.3C514.1,182.8,514.1,182.9,514.3,183z"/>
		<path d="M518.6,184.4l-2.6,4c-0.1,0.1,0,0.3,0.1,0.3l2.4,1.5c0.1,0.1,0.3,0,0.3-0.1l2.6-4c0.1-0.1,0-0.3-0.1-0.3l-2.4-1.5
			C518.8,184.3,518.6,184.3,518.6,184.4z"/>
		<path d="M522.9,186.8l-1.9,3.1c-0.1,0.1,0,0.3,0.1,0.3l11.8,7.4c0.1,0.1,0.3,0,0.3-0.1l2.2-3c0.1-0.1,0.1-0.3-0.1-0.4l-12-7.5
			C523.1,186.6,523,186.7,522.9,186.8z"/>
		<path d="M537.4,196.8l-2.4,3.5c-0.1,0.1,0,0.3,0.1,0.3l1.5,1c0.1,0.1,0.3,0.1,0.3-0.1l2.7-3.6c0.1-0.1,0.1-0.3-0.1-0.4l-1.8-1
			C537.7,196.6,537.5,196.7,537.4,196.8z"/>
	</g>
</g>
<g id="colony_projects">
	<circle cx="618" cy="411.2" r="4.1"/>
	<circle cx="666.8" cy="274.8" r="4.1"/>
	<circle cx="578.2" cy="493.3" r="4.1"/>
	<circle cx="577.7" cy="345.2" r="4.1"/>
	<circle cx="433.8" cy="250.3" r="4.1"/>
	<circle cx="339.4" cy="464.1" r="4.1"/>
	<circle cx="658.5" cy="533.4" r="4.1"/>
	<circle cx="540.3" cy="451.6" r="4.1"/>
</g>
<g id="prison_projects">
	<circle cx="461.2" cy="156.6" r="4.1"/>
	<circle cx="456.9" cy="163.5" r="4.1"/>
	<circle cx="428.7" cy="189.5" r="4.1"/>
	<circle cx="523.9" cy="200.7" r="4.1"/>
	<circle cx="535" cy="114.1" r="4.1"/>
</g>
<g id="open_projects">
	<circle cx="522.8" cy="275.8" r="4.1"/>
	<circle cx="352.8" cy="451" r="4.1"/>
	<circle cx="495.2" cy="492.4" r="4.1"/>
	<circle cx="535.5" cy="467.5" r="4.1"/>
	<circle cx="927.9" cy="481" r="4.1"/>
	<circle cx="601.7" cy="432.4" r="4.1"/>
	<circle cx="368.2" cy="383.6" r="4.1"/>
	<circle cx="476.6" cy="180.5" r="4.1"/>
	<circle cx="580.2" cy="353.5" r="4.1"/>
	<circle cx="507.3" cy="113.1" r="4.1"/>
	<circle cx="880.3" cy="248" r="4.1"/>
	<circle cx="378.7" cy="384.6" r="4.1"/>
</g>
</svg>
